HIERARCHY
ROOT Hips
{
	OFFSET -3.958830 18.904000 13.208200
	CHANNELS 6 Xposition Yposition Zposition Zrotation Yrotation Xrotation 
	JOINT LHipJoint
	{
		OFFSET 0.000000 0.000000 0.000000
		CHANNELS 3 Zrotation Yrotation Xrotation
		JOINT LeftUpLeg
		{
			OFFSET 1.800000 -1.400000 0.085000
			CHANNELS 3 Zrotation Yrotation Xrotation
			JOINT LeftLeg
			{
				OFFSET 2.215000 -6.000000 0.000000
				CHANNELS 3 Zrotation Yrotation Xrotation
				JOINT LeftFoot
				{
					OFFSET 2.500000 -6.900000 0.000000
					CHANNELS 3 Zrotation Yrotation Xrotation
					JOINT LeftToeBase
					{
						OFFSET 0.200000 -0.500000 1.950000
						CHANNELS 3 Zrotation Yrotation Xrotation
						End Site
						{
							OFFSET 0.000000 0.000000 0.000000
						}
					}
				}
			}
		}
	}
	JOINT RHipJoint
	{
		OFFSET 0.000000 0.000000 0.000000
		CHANNELS 3 Zrotation Yrotation Xrotation
		JOINT RightUpLeg
		{
			OFFSET -1.800000 -1.400000 0.085000
			CHANNELS 3 Zrotation Yrotation Xrotation
			JOINT RightLeg
			{
				OFFSET -2.215000 -6.000000 0.000000
				CHANNELS 3 Zrotation Yrotation Xrotation
				JOINT RightFoot
				{
					OFFSET -2.500000 -6.900000 0.000000
					CHANNELS 3 Zrotation Yrotation Xrotation
					JOINT RightToeBase
					{
						OFFSET -0.200000 -0.500000 1.950000
						CHANNELS 3 Zrotation Yrotation Xrotation
						End Site
						{
							OFFSET 0.000000 0.000000 0.000000
						}
					}
				}
			}
		}
	}
	JOINT LowerBack
	{
		OFFSET 0.000000 0.000000 0.000000
		CHANNELS 3 Zrotation Yrotation Xrotation
		JOINT Spine
		{
			OFFSET -0.087000 1.940000 -0.288900
			CHANNELS 3 Zrotation Yrotation Xrotation
			JOINT Spine1
			{
				OFFSET 0.000000 1.950000 0.060000
				CHANNELS 3 Zrotation Yrotation Xrotation
				JOINT Neck
				{
					OFFSET 0.000000 0.000000 0.000000
					CHANNELS 3 Zrotation Yrotation Xrotation
					JOINT Neck1
					{
						OFFSET 0.000000 1.600000 0.340000
						CHANNELS 3 Zrotation Yrotation Xrotation
						JOINT Head
						{
							OFFSET 0.000000 1.667000 -0.240000
							CHANNELS 3 Zrotation Yrotation Xrotation
							End Site
							{
								OFFSET 0.000000 0.000000 0.000000
							}
						}
					}
				}
				JOINT LeftShoulder
				{
					OFFSET 0.000000 0.000000 0.000000
					CHANNELS 3 Zrotation Yrotation Xrotation
					JOINT LeftArm
					{
						OFFSET 2.700000 1.550000 -0.730000
						CHANNELS 3 Zrotation Yrotation Xrotation
						JOINT LeftForeArm
						{
							OFFSET 5.450000 0.000000 0.000000
							CHANNELS 3 Zrotation Yrotation Xrotation
							JOINT LeftHand
							{
								OFFSET 3.450000 0.000000 0.000000
								CHANNELS 3 Zrotation Yrotation Xrotation
								JOINT LeftHandIndex1
								{
									OFFSET 0.750000 0.000000 0.000000
									CHANNELS 3 Zrotation Yrotation Xrotation
									End Site
									{
										OFFSET 0.000000 0.000000 0.000000
									}
								}
							}
						}
					}
				}
				JOINT RightShoulder
				{
					OFFSET 0.000000 0.000000 0.000000
					CHANNELS 3 Zrotation Yrotation Xrotation
					JOINT RightArm
					{
						OFFSET -2.700000 1.550000 -0.730000
						CHANNELS 3 Zrotation Yrotation Xrotation
						JOINT RightForeArm
						{
							OFFSET -5.450000 0.000000 0.000000
							CHANNELS 3 Zrotation Yrotation Xrotation
							JOINT RightHand
							{
								OFFSET -3.450000 0.000000 0.000000
								CHANNELS 3 Zrotation Yrotation Xrotation
								JOINT RightHandIndex1
								{
									OFFSET -0.750000 0.000000 0.000000
									CHANNELS 3 Zrotation Yrotation Xrotation
									End Site
									{
										OFFSET 0.000000 0.000000 0.000000
									}
								}
							}
						}
					}
				}
			}
		}
	}
}
MOTION
Frames: 14
Frame Time: 0.016667
1.658130 16.927010 -0.754650 -0.037678 6.610452 2.405639 -15.589696 13.590459 2.911005 8.209466 -2.676146 13.594745 -7.686492 7.075561 4.656978 0.137615 6.949416 2.838364 0.334070 -0.178850 0.051680 18.308601 -8.115437 3.313386 13.217520 4.150189 -21.518263 10.426283 -1.910086 -3.238677 0.217513 -2.371290 3.941374 0.118730 1.018080 0.315160 -3.071067 -6.387079 -7.178522 10.145776 -11.501103 5.899663 -12.858090 -9.486488 13.135217 -3.259747 -6.368305 -11.991042 -15.775505 3.256991 23.776398 0.953230 -2.835080 6.299730 8.093764 -8.429061 1.847068 -18.229675 -40.264829 6.854574 53.614392 -54.009945 -28.219171 -4.079505 2.768235 0.126180 0.680230 -0.621550 0.491860 -2.244896 5.409518 8.277965 34.153250 -16.481876 -8.555260 19.680472 13.616858 -1.307304 1.695896 -1.611210 -0.393780 0.346990 0.030670 -0.053980 
1.675370 16.926190 -0.637290 -0.764382 4.742958 0.639429 -15.460013 13.459494 2.894763 9.552387 -2.968900 14.770822 -9.885937 7.989269 6.848917 0.196479 7.307003 2.698365 0.377510 -0.132600 0.110120 18.420936 -8.253645 3.375292 15.091681 4.281998 -19.580278 9.130103 -2.196643 -1.274381 0.135646 -2.356452 3.942834 0.119610 0.948240 0.302830 -3.411650 -5.929305 -7.289069 11.775231 -10.982851 8.811770 -13.175822 -8.721848 13.061775 -3.570390 -6.622716 -12.595048 -16.221079 2.414151 23.425823 1.227690 -3.546380 3.387570 7.937370 -10.017009 2.307345 -15.692337 -38.246102 4.000594 52.207282 -54.650554 -27.987408 -4.016752 2.728527 0.218820 0.603500 -0.531490 0.493050 -1.431443 6.763467 8.651989 35.660586 -17.335434 -9.408980 15.989549 13.047882 -1.521830 1.763244 -1.484191 -0.385300 0.387600 0.002940 -0.068880 
1.681620 16.924130 -0.540460 -1.268266 4.271433 -0.780661 -15.349947 13.440109 2.778733 11.977337 -3.706609 13.511813 -11.938846 9.282704 11.652063 0.250543 7.663787 2.519730 0.398670 -0.126530 0.169550 18.485979 -8.432222 3.442457 16.153359 4.539809 -18.945785 7.563113 -2.488922 1.734493 0.089284 -2.290270 3.932198 0.080180 0.833500 0.298710 -3.654118 -5.525156 -7.366474 12.853846 -11.185936 11.148308 -13.338787 -8.522897 13.369771 -3.298378 -7.037424 -13.401238 -17.464407 2.364454 24.173613 1.192660 -3.459220 2.025760 7.362702 -11.759935 2.861374 -13.982372 -35.292985 1.384616 50.632998 -55.364559 -27.581624 -3.920543 2.753379 0.294900 0.509130 -0.450160 0.459340 -1.268035 8.832695 9.513640 38.663781 -17.027654 -10.359186 13.481097 13.003919 -1.494210 1.849311 -1.439191 -0.349390 0.344020 -0.019260 -0.095780 
1.689700 16.917820 -0.438180 -1.335741 4.848133 -1.717512 -15.247688 13.452295 2.621622 13.890501 -4.598090 10.533839 -12.816475 10.552746 18.081362 0.259805 8.098678 2.307645 0.361990 -0.187260 0.141040 18.541112 -8.632390 3.468683 16.222435 4.651071 -19.081554 6.666773 -2.803945 4.518346 0.080636 -2.290693 3.900745 0.029430 0.812490 0.316460 -3.876799 -5.175821 -7.362030 14.039115 -11.746526 13.091793 -13.917993 -8.701166 12.965093 -3.130055 -7.639087 -14.019692 -18.831999 2.508052 24.134271 2.157590 -4.154300 1.425010 7.937736 -12.230808 3.424511 -14.776332 -32.989848 0.141163 46.364047 -56.358580 -25.995618 -3.863371 2.824269 0.339520 0.468600 -0.430980 0.426260 -1.898310 9.550817 9.808169 41.633467 -17.483449 -11.993200 13.654306 14.543642 -1.377043 1.838733 -1.425159 -0.338520 0.322690 0.029640 -0.099440 
1.666820 16.891830 -0.311530 -0.179419 3.878213 -0.215327 -15.245436 13.537742 2.496762 13.794091 -5.006476 5.142418 -12.559079 11.387035 24.715070 0.272405 8.413137 2.210183 0.333030 -0.183010 0.045130 18.512944 -8.755149 3.455744 15.251468 4.971009 -21.409945 6.950774 -3.215122 7.983183 0.175350 -2.382902 3.919807 0.064660 0.952750 0.309660 -3.839702 -5.117731 -7.227367 13.683456 -11.097791 12.002107 -13.726722 -8.147686 11.478104 -3.431159 -8.272501 -13.231953 -18.865605 2.474169 21.877542 1.614190 -4.396080 3.818820 8.316346 -9.475575 2.973920 -19.649495 -33.397755 2.260194 39.235073 -57.594883 -22.527270 -3.884734 2.930919 0.204790 0.582930 -0.542910 0.482800 -1.530862 7.741461 9.082678 39.713383 -17.242524 -11.448411 21.727347 17.195795 -0.871913 1.715645 -1.599715 -0.354430 0.358200 0.037130 -0.039980 
1.617180 16.855360 -0.191950 1.934922 -0.223755 1.852435 -15.355438 13.537480 2.726897 12.770793 -5.609289 -0.922431 -14.617282 13.322597 31.460844 0.401406 9.243223 1.898637 0.278880 -0.244980 0.004060 18.384694 -8.671936 3.474659 14.643123 5.490369 -23.535752 6.040302 -3.272952 10.720751 0.253392 -2.344839 3.947175 0.057710 1.018870 0.286710 -3.471694 -5.354681 -7.356203 10.031043 -8.622388 10.856184 -11.159189 -5.837294 10.190027 -3.279724 -8.854586 -12.790851 -19.875530 3.799964 21.462876 1.356770 -3.308000 5.234870 7.932516 -6.673435 2.582032 -25.701804 -33.356508 4.598371 30.602848 -57.812041 -17.899535 -3.898337 2.988265 0.181370 0.629330 -0.603380 0.477250 -1.315383 7.077965 9.073392 38.751983 -16.970919 -11.025986 26.900144 20.263474 0.204134 1.644911 -1.697229 -0.406010 0.389910 0.073160 -0.044870 
1.564720 16.849410 -0.137530 3.062909 -4.481258 1.631731 -15.399611 13.305620 3.135872 13.544581 -6.777129 -6.246770 -16.835345 16.133246 38.804029 0.730708 10.390590 1.413948 0.353450 -0.160170 0.090390 18.320074 -8.664865 3.466052 14.352607 5.706910 -23.735374 5.649636 -3.605174 13.740145 0.141522 -2.361368 3.906643 0.031700 0.856250 0.277070 -3.286943 -5.149934 -7.714941 6.835293 -6.944824 13.089258 -9.260227 -4.032072 9.799956 -2.597608 -9.342135 -13.219714 -22.190811 5.698401 23.992619 2.924180 -2.291820 2.661820 6.694547 -6.513785 2.767533 -27.739587 -30.022833 3.126759 17.956625 -59.243616 -11.683366 -3.733780 3.118514 0.298230 0.480560 -0.457020 0.456860 -1.265922 8.803932 9.857765 40.268093 -15.267168 -11.690735 30.815320 25.163807 2.025195 1.674418 -1.735770 -0.334240 0.353670 0.018130 -0.062690 
1.523040 16.824270 -0.077340 3.142071 -6.979600 2.364922 -15.454361 12.883524 3.594613 15.830073 -7.933134 -13.239670 -17.801768 18.910782 45.979385 1.041150 11.622803 0.956051 0.432600 -0.064570 0.152150 18.303449 -8.518322 3.456452 14.413327 6.343015 -24.646896 6.051067 -3.971684 16.284492 0.060498 -2.478647 3.839532 0.048330 0.770660 0.290190 -3.194264 -4.848123 -8.015627 5.663239 -5.812037 14.510457 -7.442516 -2.863268 9.100125 -2.383929 -9.761592 -12.901489 -23.210712 6.546648 24.744860 3.053980 -1.673530 1.267680 5.747881 -4.814526 2.787532 -31.731168 -27.864447 2.803478 7.253019 -57.629243 -6.033874 -3.665700 3.253571 0.325970 0.415660 -0.378460 0.471680 -0.666882 8.459562 9.612484 40.665268 -13.674364 -11.636744 34.777655 29.861860 4.121295 1.695131 -1.846930 -0.272270 0.319750 -0.043540 -0.056480 
1.483310 16.792980 -0.019230 3.459093 -10.207984 2.813768 -15.537070 12.371801 4.241239 18.292058 -8.522140 -20.020916 -19.447922 22.639063 52.482048 1.404519 13.038139 0.492562 0.437150 -0.068680 0.190770 18.279988 -8.341820 3.379774 13.872421 6.800981 -24.885217 7.342118 -4.566349 18.283909 -0.019299 -2.633581 3.772869 0.012170 0.686290 0.262720 -3.077869 -4.514071 -8.402100 4.253750 -4.470757 16.629280 -5.972262 -1.462326 8.159644 -1.721332 -10.130122 -13.207487 -24.671847 8.186174 26.383984 3.537240 -0.606210 0.122440 4.172867 -3.835426 3.356210 -35.029139 -23.024139 0.801684 -4.513963 -57.417313 -0.559573 -3.602234 3.320535 0.411340 0.329280 -0.308940 0.446840 -0.149849 8.971915 9.688840 42.589553 -12.209250 -12.584075 37.997392 35.434742 6.598272 1.735107 -1.865638 -0.266050 0.314790 -0.057580 -0.081670 
1.451540 16.766390 0.023840 3.135583 -12.032438 2.215191 -15.582699 11.958485 4.773317 20.488882 -8.896466 -26.208727 -17.468595 24.838315 60.446111 1.705394 14.157079 0.107653 0.517710 0.000610 0.335010 18.287496 -8.252878 3.341363 13.798342 7.149669 -24.369933 8.192666 -5.246815 20.699006 -0.195976 -2.822268 3.651637 -0.024080 0.472860 0.266140 -3.063410 -4.120596 -8.791116 3.942585 -3.958558 20.685930 -5.604859 -0.547280 7.209620 -0.354010 -10.346738 -13.736813 -26.344497 9.338682 29.617447 2.913150 0.554440 -3.844440 1.183369 -4.172000 3.664738 -36.487170 -17.382933 -2.468308 -13.614145 -55.828350 3.329346 -3.465507 3.326143 0.560850 0.159250 -0.129370 0.403310 0.326757 10.587201 10.144298 45.312594 -10.682965 -14.303474 41.314060 40.485851 8.961892 1.824331 -1.845116 -0.196360 0.262350 -0.124160 -0.129280 
1.424650 16.726540 0.059030 2.949959 -14.132043 1.162364 -15.615471 11.592472 5.226125 22.036964 -8.870461 -32.317883 -13.174933 25.718607 69.206210 1.892071 15.107073 -0.210555 0.626040 0.082060 0.519840 18.305435 -8.257301 3.280079 13.561846 7.272633 -23.296130 8.703731 -5.749750 22.397036 -0.368864 -2.973246 3.533073 -0.020590 0.255710 0.254740 -3.088189 -3.617643 -9.104561 3.453729 -3.320460 25.449939 -5.656486 0.656675 5.983226 0.719833 -10.021874 -13.768730 -26.273852 10.020710 33.443827 2.294750 1.538370 -9.351660 -2.007252 -4.302207 3.509423 -37.065080 -12.134607 -5.225082 -20.818167 -52.534318 5.946388 -3.328982 3.271174 0.739930 -0.016230 0.043280 0.357350 1.363405 11.550654 10.212562 47.307317 -9.109842 -15.829017 44.921108 46.154561 11.903276 1.903208 -1.817572 -0.167240 0.238150 -0.199310 -0.205680 
1.402190 16.681070 0.092420 3.276315 -15.546082 0.402746 -15.655792 11.370426 5.538804 21.264662 -9.161462 -38.872849 -6.348550 23.747089 78.006013 1.973373 15.606192 -0.353046 0.638000 0.096920 0.578620 18.303026 -8.284353 3.213272 12.508864 7.315340 -22.580339 10.895162 -6.610750 23.256838 -0.489727 -3.219570 3.423748 -0.033510 0.163150 0.229780 -3.063707 -3.295284 -9.303487 2.522569 -2.530240 29.551968 -5.195171 1.839325 4.588606 1.288623 -9.671613 -13.633478 -25.790969 10.344915 36.541610 1.314820 2.038570 -12.729540 -5.322581 -4.273166 3.396095 -38.014921 -7.229509 -7.475881 -23.992382 -49.373392 6.469221 -3.271427 3.168814 0.846150 -0.104730 0.133650 0.331100 3.520400 12.186997 10.110382 48.448468 -8.370700 -17.246705 47.670709 51.898043 14.940133 1.965634 -1.758992 -0.179100 0.262270 -0.215640 -0.238570 
1.369880 16.645820 0.117630 4.044041 -17.091988 -1.648664 -15.684152 11.263583 5.758833 19.281735 -9.801177 -44.570539 2.297670 19.060786 86.839332 1.981304 15.723580 -0.419544 0.647370 0.091490 0.647270 18.290464 -8.427169 3.096787 11.681535 6.712234 -20.403720 11.808049 -7.051995 23.122877 -0.575865 -3.379678 3.338700 -0.062330 0.062830 0.270960 -3.017122 -2.948796 -9.421619 0.515061 -1.353868 35.245543 -5.020113 3.302889 2.900301 1.796707 -8.462793 -13.070540 -22.707696 9.847971 39.947724 -0.843650 3.129170 -16.197910 -8.743158 -4.371441 3.045049 -37.553170 -2.737086 -9.332745 -24.949197 -46.801651 6.242167 -3.271510 3.109632 0.926510 -0.151830 0.212770 0.269020 5.738639 12.379876 9.685825 49.657285 -7.148536 -18.271741 52.360880 57.569761 19.159053 2.021942 -1.720172 -0.152820 0.219440 -0.198840 -0.290000 
1.349830 16.607540 0.131000 4.001000 -19.511977 -3.017575 -15.677694 10.991905 6.027256 17.473134 -9.657101 -50.409218 9.670792 13.946918 92.773584 2.021371 15.657997 -0.410438 0.610280 0.046340 0.638030 18.338632 -8.498935 3.040851 11.686047 6.577812 -18.648589 12.183093 -7.357945 23.605934 -0.625841 -3.593745 3.250909 -0.114420 0.022690 0.314310 -3.152983 -2.385803 -9.544340 0.488951 -0.414940 40.738366 -5.803911 4.990418 0.613043 2.213038 -7.754107 -12.893847 -20.284799 9.430008 41.431778 -2.318220 3.652750 -16.901870 -10.654793 -3.839660 3.012534 -38.500755 1.844760 -10.876927 -24.157783 -45.273989 5.669507 -3.279906 3.117432 0.931940 -0.158700 0.234940 0.225550 6.684820 12.440489 9.475344 51.719462 -6.034965 -18.767992 59.243670 64.523928 25.820714 2.134868 -1.700797 -0.116070 0.154570 -0.165900 -0.298690 
